# xmcd
#
# Track frame offsets: 
#        150
#        14073
#        25466
#        38609
#        59324
#        85043
#        106655
#        124003
#        141726
#        160747
#        181063
#        209036
#        227847
#        244231
#        261948
#
# Disc length: 3811 seconds
#
# Revision: 0
# Processed by: cddbd v1.5.1PL0 Copyright (c) Steve Scherf et al.
# Submitted via: ExactAudioCopy v0.95a3
#
DISCID=d10ee10f
DTITLE=Kevin Coyne with Jon Langford - One day in Chicago
DYEAR=2005
DGENRE=Meditative
TTITLE0=Monkeyheart
TTITLE1=Britisher cowboy
TTITLE2=Over land and sea
TTITLE3=Money like water
TTITLE4=Way of the world
TTITLE5=Happy island girl
TTITLE6=Scene of the crime
TTITLE7=She's not there
TTITLE8=You you you!
TTITLE9=Angel
TTITLE10=Saviour
TTITLE11=Blame it on the night
TTITLE12=Fat girl
TTITLE13=Money like water (version)
TTITLE14=Karate king
EXTD=
EXTT0=
EXTT1=
EXTT2=
EXTT3=
EXTT4=
EXTT5=
EXTT6=
EXTT7=
EXTT8=
EXTT9=
EXTT10=
EXTT11=
EXTT12=
EXTT13=
EXTT14=
PLAYORDER=
